<?xml version="1.0" encoding="UTF-8" standalone="no"?> <svg width="64" height="64" viewBox="0 0 64 64" fill="none" xmlns="http://www.w3.org/2000/svg">
<path d="M8.82999 31.3301C9.0474 31.3658 9.2704 31.3429 9.47604 31.2638C9.68168 31.1847 9.86253 31.0523 9.99999 30.8801L18.62 20.1001C18.7887 19.877 18.8784 19.6042 18.875 19.3245C18.8715 19.0448 18.7751 18.7743 18.601 18.5554C18.4268 18.3366 18.1848 18.1819 17.913 18.1157C17.6413 18.0496 17.3552 18.0758 17.1 18.1901L12.49 20.4201C22.87 -0.619904 54.42 6.5301 54.7 30.1001C54.7 30.4316 54.8317 30.7496 55.0661 30.984C55.3005 31.2184 55.6185 31.3501 55.95 31.3501C56.2815 31.3501 56.5995 31.2184 56.8339 30.984C57.0683 30.7496 57.2 30.4316 57.2 30.1001C56.81 3.0001 20.05 -4.1099 9.58999 20.7601L4.84999 16.3201C4.64133 16.1358 4.37713 16.0265 4.09928 16.0094C3.82143 15.9923 3.54583 16.0685 3.31617 16.2258C3.08651 16.3831 2.91594 16.6126 2.83149 16.8779C2.74704 17.1431 2.75355 17.429 2.84999 17.6901L7.84999 30.5501C7.93029 30.7548 8.06318 30.9347 8.23524 31.0717C8.40731 31.2086 8.61246 31.2978 8.82999 31.3301V31.3301ZM9.24999 23.8701C9.43476 24.0425 9.66746 24.1549 9.91739 24.1924C10.1673 24.2299 10.4228 24.1907 10.65 24.0801L13.23 22.8401L9.38999 27.6201L7.16999 21.9201L9.24999 23.8701Z" fill="black"/>
<path d="M61.17 46.3101L56.17 33.4501C56.0881 33.2428 55.9521 33.0611 55.7763 32.9239C55.6005 32.7868 55.3912 32.6991 55.17 32.6701C54.9541 32.6353 54.7329 32.6586 54.529 32.7377C54.3251 32.8167 54.1459 32.9488 54.01 33.1201L45.3801 43.9001C45.2113 44.1232 45.1216 44.3961 45.1251 44.6757C45.1285 44.9554 45.2249 45.226 45.3991 45.4448C45.5732 45.6637 45.8152 45.8184 46.087 45.8845C46.3588 45.9506 46.6448 45.9245 46.9001 45.8101L51.51 43.5801C41.13 64.6201 9.58005 57.4701 9.30005 33.9001C9.30005 33.5686 9.16835 33.2507 8.93393 33.0163C8.69951 32.7818 8.38157 32.6501 8.05005 32.6501C7.71853 32.6501 7.40059 32.7818 7.16617 33.0163C6.93174 33.2507 6.80005 33.5686 6.80005 33.9001C7.19005 61.0001 44 68.1101 54.41 43.2401L59.1501 47.6801C59.3596 47.8652 59.6248 47.9753 59.9039 47.9931C60.1829 48.0109 60.4599 47.9354 60.6913 47.7785C60.9227 47.6215 61.0954 47.3921 61.182 47.1263C61.2687 46.8604 61.2645 46.5733 61.17 46.3101V46.3101ZM54.75 40.1301C54.6189 40.0039 54.4606 39.9094 54.2873 39.8539C54.1139 39.7984 53.9301 39.7835 53.75 39.8101V39.8101C52.7234 40.1985 51.7216 40.6493 50.75 41.1601L54.59 36.3801L56.8101 42.0901L54.75 40.1301Z" fill="black"/>
<path d="M45.46 36.2501C45.6245 36.2514 45.7876 36.22 45.9399 36.1576C46.0921 36.0953 46.2305 36.0033 46.3468 35.8869C46.4631 35.7706 46.5552 35.6323 46.6175 35.48C46.6799 35.3277 46.7113 35.1646 46.71 35.0001V29.0001C46.7113 28.8356 46.6799 28.6724 46.6175 28.5202C46.5552 28.3679 46.4631 28.2296 46.3468 28.1132C46.2305 27.9969 46.0921 27.9049 45.9399 27.8425C45.7876 27.7802 45.6245 27.7487 45.46 27.7501H43.09C43.02 27.5601 42.93 27.3601 42.85 27.1701L44.54 25.4801C44.7703 25.243 44.8991 24.9256 44.8991 24.5951C44.8991 24.2646 44.7703 23.9471 44.54 23.7101L40.29 19.4601C40.0529 19.2298 39.7354 19.1009 39.405 19.1009C39.0745 19.1009 38.757 19.2298 38.52 19.4601L36.83 21.1501L36.25 20.9101V18.5401C36.2513 18.3756 36.2199 18.2124 36.1575 18.0602C36.0952 17.9079 36.0031 17.7696 35.8868 17.6532C35.7705 17.5369 35.6321 17.4449 35.4799 17.3825C35.3276 17.3202 35.1645 17.2887 35 17.2901H29C28.8354 17.2887 28.6723 17.3202 28.52 17.3825C28.3678 17.4449 28.2294 17.5369 28.1131 17.6532C27.9968 17.7696 27.9047 17.9079 27.8424 18.0602C27.78 18.2124 27.7486 18.3756 27.75 18.5401V20.8801L27.16 21.1401L25.48 19.4601C25.2429 19.2298 24.9254 19.1009 24.595 19.1009C24.2645 19.1009 23.947 19.2298 23.71 19.4601L19.46 23.7101C19.2297 23.9471 19.1008 24.2646 19.1008 24.5951C19.1008 24.9256 19.2297 25.243 19.46 25.4801L21.13 27.1501C21.04 27.3501 20.97 27.5501 20.9 27.7501H18.54C18.3754 27.7487 18.2123 27.7802 18.06 27.8425C17.9078 27.9049 17.7694 27.9969 17.6531 28.1132C17.5368 28.2296 17.4447 28.3679 17.3824 28.5202C17.32 28.6724 17.2886 28.8356 17.29 29.0001V35.0001C17.2886 35.1646 17.32 35.3277 17.3824 35.48C17.4447 35.6323 17.5368 35.7706 17.6531 35.8869C17.7694 36.0033 17.9078 36.0953 18.06 36.1576C18.2123 36.22 18.3754 36.2514 18.54 36.2501H20.91C20.97 36.4501 21.05 36.6501 21.13 36.8601L19.46 38.5201C19.2297 38.7571 19.1008 39.0746 19.1008 39.4051C19.1008 39.7356 19.2297 40.053 19.46 40.2901L23.71 44.5401C25.14 45.6201 25.71 44.1601 27.13 42.8901C27.34 42.9701 27.55 43.0501 27.75 43.1101C27.87 45.0201 27.24 46.4901 29 46.7101H35C35.1645 46.7114 35.3276 46.68 35.4799 46.6176C35.6321 46.5553 35.7705 46.4633 35.8868 46.3469C36.0031 46.2306 36.0952 46.0923 36.1575 45.94C36.2199 45.7877 36.2513 45.6246 36.25 45.4601V43.0901L36.83 42.8501L38.52 44.5401C38.757 44.7704 39.0745 44.8992 39.405 44.8992C39.7354 44.8992 40.0529 44.7704 40.29 44.5401L44.54 40.2901C44.7703 40.053 44.8991 39.7356 44.8991 39.4051C44.8991 39.0746 44.7703 38.7571 44.54 38.5201L42.85 36.8301C42.93 36.6401 43.02 36.4401 43.09 36.2501H45.46ZM41.46 34.0201C40.77 34.6401 40.79 35.7201 40.24 36.4801C40.1192 36.7261 40.0756 37.0029 40.1149 37.2741C40.1541 37.5453 40.2744 37.7984 40.46 38.0001L41.88 39.4301L39.4 41.8801L38 40.4601C37.8012 40.2799 37.5529 40.1636 37.2872 40.1262C37.0216 40.0888 36.7508 40.1319 36.51 40.2501C35.69 40.8401 34.45 40.7601 33.91 41.6601C33.7605 42.5013 33.7168 43.358 33.78 44.2101H30.28C30.28 44.1601 30.28 41.9901 30.28 42.0301C30.2845 41.9635 30.2845 41.8967 30.28 41.8301C30.2638 41.7501 30.2369 41.6728 30.2 41.6001C30.1557 41.5261 30.1056 41.4559 30.05 41.3901L29.94 41.2601C29.8492 41.1939 29.752 41.137 29.65 41.0901L29.43 41.0001H29.34C28.6967 40.79 28.0685 40.536 27.46 40.2401C27.3088 40.1546 27.1402 40.1047 26.9669 40.0943C26.7936 40.0839 26.6202 40.1133 26.46 40.1801C26.3112 40.2346 26.1775 40.3237 26.07 40.4401L24.6 41.8801L22.12 39.4001L23.54 38.0001C23.6884 37.8648 23.7988 37.693 23.8602 37.5017C23.9216 37.3105 23.9319 37.1065 23.89 36.9101C23.8704 36.7687 23.8228 36.6327 23.75 36.5101C23.4584 35.8905 23.2078 35.2525 23 34.6001C22.9344 34.3839 22.8055 34.1923 22.63 34.0501C22.5618 33.9827 22.4844 33.9254 22.4 33.8801C22.2405 33.8052 22.0661 33.7675 21.89 33.7701H19.89V30.2701H21.89C22.0552 30.271 22.2188 30.2369 22.37 30.1701C22.4783 30.121 22.5793 30.057 22.67 29.9801V29.9801C22.767 29.8849 22.8511 29.7773 22.92 29.6601C22.9559 29.6033 22.9861 29.543 23.01 29.4801C23.2228 28.8301 23.4869 28.1981 23.8 27.5901C23.8548 27.3977 23.8883 27.1998 23.9 27.0001C23.9152 26.8772 23.9152 26.7529 23.9 26.6301C23.9043 26.6103 23.9043 26.5898 23.9 26.5701C23.8655 26.4469 23.8078 26.3315 23.73 26.2301C23.7122 26.199 23.6884 26.1718 23.66 26.1501C23.6458 26.1195 23.6254 26.0922 23.6 26.0701L22.12 24.6001L24.6 22.1201L26 23.5401C26 23.5401 26 23.5401 26.07 23.6101C26.1866 23.71 26.3182 23.7909 26.46 23.8501C26.6229 23.9102 26.7971 23.9334 26.9701 23.9178C27.1431 23.9022 27.3104 23.8484 27.46 23.7601C28.0651 23.4564 28.6938 23.2022 29.34 23.0001H29.43L29.62 22.9001C29.6834 22.8694 29.7437 22.8325 29.8 22.7901C30.0694 22.5452 30.2312 22.2037 30.25 21.8401V19.8401H33.75V21.8401C33.7626 22.1086 33.8563 22.3671 34.0187 22.5813C34.1812 22.7955 34.4048 22.9555 34.66 23.0401C35.66 23.1701 36.5 24.1701 37.5 23.8701C37.92 23.7901 39.08 22.4201 39.4 22.1601L41.88 24.6401L40.46 26.0001C40.2798 26.1989 40.1635 26.4472 40.1261 26.7128C40.0886 26.9785 40.1318 27.2492 40.25 27.4901C40.86 28.3201 40.75 29.6601 41.76 30.1301C42.5725 30.2309 43.3922 30.261 44.21 30.2201V33.7201C43.64 33.8001 41.91 33.5601 41.46 34.0001V34.0201Z" fill="black"/>
<path d="M32 26.7102C25 26.9302 25 37.0702 32 37.2902C39 37.0702 39 26.9302 32 26.7102ZM32 34.7902C31.26 34.7902 30.5504 34.4963 30.0272 33.973C29.5039 33.4498 29.21 32.7402 29.21 32.0002C29.21 31.2603 29.5039 30.5506 30.0272 30.0274C30.5504 29.5042 31.26 29.2102 32 29.2102C32.74 29.2102 33.4496 29.5042 33.9728 30.0274C34.4961 30.5506 34.79 31.2603 34.79 32.0002C34.79 32.7402 34.4961 33.4498 33.9728 33.973C33.4496 34.4963 32.74 34.7902 32 34.7902Z" fill="black"/>
</svg>
